<?xml version="1.0" encoding="utf-8"?>
<!-- Generator: Adobe Illustrator 26.3.1, SVG Export Plug-In . SVG Version: 6.00 Build 0)  -->
<svg version="1.1" id="レイヤー_1" xmlns="http://www.w3.org/2000/svg" xmlns:xlink="http://www.w3.org/1999/xlink" x="0px"
	 y="0px" viewBox="0 0 60 60" style="enable-background:new 0 0 60 60;" xml:space="preserve">
<style type="text/css">
	.st0{fill:none;}
	.st1{fill:#FFFFFF;}
</style>
<g>
	<polygon class="st0" points="26.2,35.5 35.8,30.1 26.2,24.5 	"/>
	<path class="st1" d="M30,0C13.4,0,0,13.4,0,30s13.4,30,30,30s30-13.4,30-30S46.6,0,30,0z M30,59C14,59,1,46,1,30S14,1,30,1
		s29,13,29,29S46,59,30,59z"/>
	<path class="st1" d="M30,1C14,1,1,14,1,30s13,29,29,29s29-13,29-29S46,1,30,1z M26.2,35.5v-11l9.5,5.6L26.2,35.5z"/>
</g>
</svg>
