<?xml version="1.0" encoding="utf-8"?>
<!-- Generator: Adobe Illustrator 26.3.1, SVG Export Plug-In . SVG Version: 6.00 Build 0)  -->
<svg version="1.1" id="レイヤー_1" xmlns="http://www.w3.org/2000/svg" xmlns:xlink="http://www.w3.org/1999/xlink" x="0px"
	 y="0px" viewBox="0 0 58 58" style="enable-background:new 0 0 58 58;" xml:space="preserve">
<style type="text/css">
	.st0{fill:#028244;}
	.st1{fill:#FFFFFF;}
</style>
<path class="st0" d="M29,0C13,0,0,13,0,29s13,29,29,29s29-13,29-29S45,0,29,0z M29,57C13.5,57,1,44.5,1,29S13.5,1,29,1
	s28,12.5,28,28S44.5,57,29,57z"/>
<path class="st1" d="M41.6,39.5H42v-0.5C42.1,39.2,41.9,39.4,41.6,39.5z"/>
<path class="st1" d="M15,38.9v0.5h0.4C15.2,39.4,15,39.2,15,38.9z"/>
<path class="st0" d="M30.8,30.2l-1.2,1.1c-0.6,0.6-1.6,0.6-2.2,0l-1.2-1.1l-1.1-1l-10.1-9v18.7c0,0.3,0.2,0.5,0.4,0.5h26.2
	c0.3,0,0.4-0.3,0.4-0.5V20.3l-10.1,9L30.8,30.2z"/>
<path class="st0" d="M26.2,28.3l1.1,1l0.8,0.7c0.2,0.2,0.5,0.2,0.7,0l0.8-0.7l0.2-0.1l0.9-0.8l7.1-6.3l3.4-3H15.8l7,6.2L26.2,28.3z"
	/>
</svg>
