<?xml version="1.0" encoding="utf-8"?>
<!-- Generator: Adobe Illustrator 26.3.1, SVG Export Plug-In . SVG Version: 6.00 Build 0)  -->
<svg version="1.1" id="グループ_126" xmlns="http://www.w3.org/2000/svg" xmlns:xlink="http://www.w3.org/1999/xlink" x="0px"
	 y="0px" viewBox="0 0 45 34.1" style="enable-background:new 0 0 45 34.1;" xml:space="preserve">
<style type="text/css">
	.st0{fill:none;}
	.st1{fill:#FFFFFF;}
</style>
<g>
	<path class="st0" d="M44.3,34.1H45v-0.9C45.1,33.7,44.8,34,44.3,34.1z"/>
	<path class="st0" d="M0,33.2v0.9h0.7C0.3,34,0,33.6,0,33.2z"/>
	<path class="st0" d="M18.7,18.7l2,1.8c1,0.9,2.6,0.9,3.7,0l2-1.8l1.8-1.6L45,2.1V0h-1.3l-5.6,5L26.3,15.5l-1.5,1.4l-0.3,0.2
		l-1.4,1.2c-0.4,0.3-0.9,0.3-1.2,0l-1.4-1.2l-1.8-1.6l-5.8-5.2L1.3,0H0v2.1l16.9,15L18.7,18.7z"/>
	<polygon class="st1" points="0.7,34.1 44.3,34.1 44.3,34.1 0.7,34.1 	"/>
	<path class="st1" d="M45,2.1L45,2.1l0,31.1c0,0,0,0,0,0V2.1z"/>
	<path class="st1" d="M28.2,17.1l-1.8,1.6l-2,1.8c-1,0.9-2.6,0.9-3.7,0l-2-1.8l-1.8-1.6L0,2.1v31.1c0,0.4,0.3,0.8,0.7,0.9h43.6
		c0.4-0.1,0.7-0.4,0.7-0.9V2.1L28.2,17.1z"/>
	<path class="st1" d="M18.7,15.5l1.8,1.6l1.4,1.2c0.4,0.3,0.9,0.3,1.2,0l1.4-1.2l0.3-0.2l1.5-1.4L38.1,5l5.6-5H1.3l11.6,10.3
		L18.7,15.5z"/>
</g>
</svg>
